<svg width="124" height="52" viewBox="0 0 124 52" fill="none" xmlns="http://www.w3.org/2000/svg">
<g clip-path="url(#clip0_40004141_7669)">
<path d="M120.864 51.6925C120.008 51.6925 119.309 51.4107 118.767 50.8473C118.245 50.2632 117.984 49.585 117.984 48.813C117.984 47.9992 118.245 47.3212 118.767 46.7786C119.309 46.2153 120.008 45.9336 120.864 45.9336C121.698 45.9336 122.387 46.2153 122.929 46.7786C123.472 47.3212 123.743 47.9992 123.743 48.813C123.743 49.606 123.472 50.284 122.929 50.8473C122.387 51.4107 121.698 51.6925 120.864 51.6925Z" fill="#FE3D22"/>
<path d="M94.7012 51.3776V28.2168H99.6777L108.942 42.0193V28.2168H114.294V51.3776H109.286L100.085 38.107V51.3776H94.7012Z" fill="#FE3D22"/>
<path d="M81.7458 51.6912C79.7845 51.6912 78.063 51.3574 76.5816 50.6896C75.1002 50.022 73.8587 49.1248 72.857 47.9979C71.8764 46.8504 71.1358 45.5776 70.6348 44.1794C70.1551 42.7607 69.915 41.3105 69.915 39.8291C69.915 38.3477 70.1655 36.8975 70.6662 35.4785C71.167 34.0597 71.9078 32.787 72.8884 31.6601C73.8899 30.5126 75.1418 29.6049 76.6442 28.9372C78.1466 28.2486 79.8993 27.9043 81.9024 27.9043C83.4881 27.9043 84.8444 28.1025 85.9711 28.499C87.0978 28.8955 88.0369 29.4067 88.7881 30.0327C89.5601 30.6586 90.1757 31.3264 90.6346 32.0358C91.1145 32.7244 91.4692 33.3816 91.6989 34.0075C91.9491 34.6127 92.1056 35.1134 92.1682 35.5099C92.2518 35.9062 92.2934 36.1045 92.2934 36.1045H86.9102C86.9102 36.1045 86.8476 35.9376 86.7223 35.6038C86.6179 35.2491 86.3884 34.8421 86.0337 34.3832C85.6999 33.9241 85.1991 33.5276 84.5314 33.1937C83.8638 32.839 82.9873 32.6618 81.9024 32.6618C80.4835 32.6618 79.2942 33.0061 78.3343 33.6946C77.3954 34.3832 76.686 35.2699 76.2061 36.3549C75.7262 37.44 75.4861 38.5667 75.4861 39.7352C75.4861 40.9454 75.7262 42.1035 76.2061 43.2094C76.7069 44.2943 77.4371 45.1915 78.3969 45.9009C79.3568 46.6103 80.5461 46.9652 81.9651 46.9652C83.4673 46.9652 84.6566 46.5999 85.533 45.8697C86.4303 45.1393 86.9832 44.169 87.1919 42.9589H81.4641V38.7336H92.5439V40.5803C92.5439 43.0215 92.0744 45.0663 91.1355 46.7147C90.2173 48.3632 88.9445 49.6047 87.3171 50.4393C85.6895 51.2739 83.8324 51.6912 81.7458 51.6912Z" fill="#FE3D22"/>
<path d="M62.3467 51.3776V28.2168H67.7613V51.3776H62.3467Z" fill="#FE3D22"/>
<path d="M51.0563 51.6912C49.4913 51.6912 48.1559 51.5138 47.05 51.1591C45.9649 50.7836 45.0573 50.3037 44.3271 49.7193C43.6175 49.1352 43.0438 48.5196 42.6056 47.8728C42.1883 47.2259 41.8753 46.6103 41.6666 46.0261C41.4789 45.442 41.3537 44.9725 41.2911 44.6178C41.2285 44.2421 41.1973 44.0544 41.1973 44.0544H46.6743C46.6743 44.0544 46.7161 44.2213 46.7996 44.5551C46.883 44.868 47.0708 45.2333 47.3629 45.6506C47.676 46.0679 48.1349 46.4434 48.7401 46.7773C49.3661 47.0902 50.2007 47.2469 51.244 47.2469C52.5377 47.2469 53.4662 46.986 54.0295 46.4643C54.6139 45.9427 54.9059 45.348 54.9059 44.6804C54.9059 44.0752 54.6869 43.5953 54.2486 43.2406C53.8313 42.8859 53.1429 42.6146 52.183 42.4268L49.0844 41.8948C47.7908 41.6652 46.5701 41.3001 45.4224 40.7993C44.2957 40.2986 43.3777 39.589 42.6683 38.671C41.9797 37.7529 41.6354 36.5636 41.6354 35.103C41.6354 33.6632 41.9901 32.4113 42.6995 31.3472C43.4299 30.2621 44.4627 29.4171 45.7981 28.8119C47.1335 28.207 48.7089 27.9043 50.5242 27.9043C51.9429 27.9043 53.1533 28.0817 54.1547 28.4364C55.1564 28.7703 55.991 29.2084 56.6586 29.751C57.3264 30.2725 57.8583 30.8359 58.2548 31.441C58.6721 32.0254 58.9746 32.5887 59.1625 33.1313C59.3711 33.6736 59.5068 34.1119 59.5694 34.4456C59.632 34.7795 59.6632 34.9466 59.6632 34.9466H54.3112C54.3112 34.9466 54.2696 34.8213 54.1861 34.5709C54.1235 34.2996 53.9565 33.9971 53.6852 33.6632C53.4349 33.3085 53.0488 32.9956 52.5273 32.7244C52.0056 32.4531 51.2962 32.3175 50.3989 32.3175C49.147 32.3175 48.2602 32.5887 47.7386 33.1313C47.2169 33.6528 46.9562 34.2058 46.9562 34.7899C46.9562 35.4369 47.2379 35.9272 47.8012 36.2611C48.3854 36.5948 49.1158 36.8453 49.992 37.0121L53.2783 37.5755C54.5512 37.8051 55.7197 38.191 56.7838 38.7336C57.8479 39.2761 58.7035 40.0063 59.3503 40.9246C59.9971 41.8426 60.3206 42.9797 60.3206 44.3361C60.3206 45.7341 59.9555 46.9964 59.2251 48.1231C58.5157 49.229 57.4724 50.1054 56.0953 50.7522C54.7181 51.3782 53.0384 51.6912 51.0563 51.6912Z" fill="#FE3D22"/>
<path d="M22.7783 51.3776V28.2168H39.1473V32.9115H28.193V37.3872H37.7389V41.8629H28.193V46.6827H39.3038V51.3776H22.7783Z" fill="#FE3D22"/>
<path d="M0 51.3776V28.2168H9.17045C11.0692 28.2168 12.7384 28.5505 14.1782 29.2183C15.618 29.865 16.8073 30.7415 17.7461 31.8474C18.706 32.9533 19.4258 34.1948 19.9057 35.5718C20.3857 36.9489 20.6257 38.3575 20.6257 39.7971C20.6257 41.2369 20.3857 42.6453 19.9057 44.0224C19.4258 45.3996 18.706 46.6411 17.7461 47.747C16.8073 48.8529 15.618 49.7396 14.1782 50.4073C12.7384 51.0541 11.0692 51.3776 9.17045 51.3776H0ZM8.91999 32.9741H5.41465V46.5577H8.91999C10.3598 46.5577 11.5387 46.2238 12.4567 45.556C13.3958 44.8884 14.0844 44.0432 14.5225 43.021C14.9606 41.9777 15.1797 40.8822 15.1797 39.7345C15.1797 38.6286 14.9606 37.5541 14.5225 36.5108C14.0844 35.4675 13.3958 34.6225 12.4567 33.9755C11.5387 33.308 10.3598 32.9741 8.91999 32.9741Z" fill="#FE3D22"/>
<path d="M90.0176 23.6149L97.8111 0.454102H105.072L112.865 23.6149H107.201L105.855 19.3896H97.0284L95.6827 23.6149H90.0176ZM98.5308 14.7575H104.384L101.442 5.64969L98.5308 14.7575Z" fill="#1C1B17"/>
<path d="M69.4082 23.6149V0.454102H74.8227V10.0001L82.5221 0.454102H89.1261L79.8306 11.5337L89.4392 23.6149H82.5847L74.8227 13.6308V23.6149H69.4082Z" fill="#1C1B17"/>
<path d="M42.166 23.6149V0.454102H49.4898L54.2785 11.7215L59.2548 0.454102H66.3283V23.6149H60.9763V8.81074L56.7509 18.3569H51.7432L47.5179 8.74812V23.6149H42.166Z" fill="#1C1B17"/>
<path d="M22.7783 23.6149V0.454102H39.1473V5.14895H28.193V9.62455H37.7389V14.1002H28.193V18.9202H39.3038V23.6149H22.7783Z" fill="#1C1B17"/>
<path d="M0 23.6149V0.454102H9.17045C11.0692 0.454102 12.7384 0.787988 14.1782 1.45557C15.618 2.10254 16.8073 2.97878 17.7461 4.08467C18.706 5.19057 19.4258 6.4321 19.9057 7.80926C20.3857 9.18643 20.6257 10.5948 20.6257 12.0346C20.6257 13.4742 20.3857 14.8828 19.9057 16.2597C19.4258 17.6369 18.706 18.8784 17.7461 19.9843C16.8073 21.0902 15.618 21.977 14.1782 22.6446C12.7384 23.2916 11.0692 23.6149 9.17045 23.6149H0ZM8.91999 5.21138H5.41465V18.795H8.91999C10.3598 18.795 11.5387 18.4611 12.4567 17.7933C13.3958 17.1258 14.0844 16.2807 14.5225 15.2583C14.9606 14.215 15.1797 13.1195 15.1797 11.972C15.1797 10.8661 14.9606 9.7914 14.5225 8.74812C14.0844 7.70485 13.3958 6.85982 12.4567 6.21304C11.5387 5.54526 10.3598 5.21138 8.91999 5.21138Z" fill="#1C1B17"/>
</g>
<defs>
<clipPath id="clip0_40004141_7669">
<rect width="124" height="52" fill="white"/>
</clipPath>
</defs>
</svg>
