<svg width="93" height="93" viewBox="0 0 93 93" fill="none" xmlns="http://www.w3.org/2000/svg">
<path d="M43.4047 0.0977295C68.9374 -1.54815 90.9812 17.7904 92.6736 43.3202C94.3659 68.8498 75.0675 90.9283 49.5411 92.6676C23.9486 94.4114 1.80003 75.052 0.103335 49.4564C-1.59336 23.8609 17.8061 1.74767 43.4047 0.0977295Z" fill="#FE3D22"/>
<path d="M63.0938 31.0449C63.0294 34.2329 63.0893 37.6523 63.0889 40.8564L63.0928 59.291C61.1987 59.269 59.2704 59.2867 57.374 59.2881C57.3749 58.8699 57.42 57.0418 57.2842 56.7627C57.0984 56.8947 56.7833 57.2928 56.6035 57.4775C55.9329 58.1673 55.3939 58.7023 54.4961 59.1084C52.5687 59.9803 50.1098 59.8801 48.1465 59.1885C46.7414 58.6934 45.3654 57.3975 44.501 56.1924C44.1209 55.6626 43.7479 54.8698 43.4727 54.2744C41.8955 56.9284 37.8104 59.0153 34.7676 59.2412C33.4237 59.3406 31.7679 59.2841 30.3984 59.2832L23.6924 59.2852L22.3438 59.29L22.3447 31.7783C24.9013 31.8412 27.66 31.8036 30.1846 31.7793C34.2508 31.7401 37.3031 31.6325 40.79 34.1133C42.9831 35.6736 45.1691 38.5881 45.667 41.2949C46.4465 40.5724 47.3563 40.0049 48.3486 39.624C51.298 38.4901 55.0037 39.2476 56.9082 41.7266C56.991 41.8342 57.1965 42.0516 57.3184 42.1055C57.41 41.6436 57.374 39.2219 57.374 38.6543V31.0469C59.2388 31.0839 61.2218 31.048 63.0938 31.0449ZM67.1758 53.2812C68.9366 52.9497 70.6341 54.1037 70.9736 55.8623C71.313 57.6214 70.1669 59.3238 68.4092 59.6709C66.6406 60.0203 64.925 58.8655 64.583 57.0957C64.2412 55.3261 65.4044 53.6154 67.1758 53.2812ZM52.6729 43.8467C51.386 44.0065 50.4396 44.4175 49.6426 45.4658C48.6692 46.7459 48.2253 48.645 48.4336 50.2275C48.7858 52.8977 50.2772 55.1239 53.1787 55.0273C54.4155 54.8529 55.3363 54.5283 56.1162 53.4883C57.9761 51.0078 57.8385 46.4878 55.2109 44.5703C54.477 44.0366 53.5777 43.7801 52.6729 43.8467ZM32.4922 36.9238C31.0136 36.9333 29.5343 36.9355 28.0557 36.9287C28.031 38.7936 28.0271 40.6836 28.043 42.5488C28.0758 46.4108 27.9899 50.2946 28.0596 54.1543L31.2861 54.1523C32.9875 54.1532 33.8924 54.1706 35.5439 53.5879C38.5202 52.4487 40.0943 49.2955 40.377 46.2725C40.5205 44.7363 40.2194 43.2477 39.6641 41.8252C38.4132 38.6217 35.9108 36.8479 32.4922 36.9238Z" fill="white"/>
</svg>
