<svg width="194" height="194" viewBox="0 0 194 194" fill="none" xmlns="http://www.w3.org/2000/svg">
<mask id="mask0_40004141_9211" style="mask-type:alpha" maskUnits="userSpaceOnUse" x="0" y="0" width="194" height="194">
<path d="M97 0C150.572 0 194 43.4284 194 97C194 150.572 150.572 194 97 194C43.4284 194 0 150.572 0 97C0 43.4284 43.4284 0 97 0ZM97 45C68.2812 45 45 68.2812 45 97C45 125.719 68.2812 149 97 149C125.719 149 149 125.719 149 97C149 68.2812 125.719 45 97 45Z" fill="#D9D9D9"/>
</mask>
<g mask="url(#mask0_40004141_9211)">
<path d="M99.3281 0V85.9932L125.902 4.20703L129.375 5.33594L102.813 87.084L153.335 17.5469L156.289 19.6934L105.76 89.2412L175.307 38.7119L177.453 41.666L107.896 92.2021L189.668 65.6328L190.797 69.1055L108.035 95.9961H185V98.9961H107.579L176.95 121.536L175.905 124.751L106.962 102.35L161.124 141.701L159.198 144.352L105.392 105.259L156.283 175.306L153.329 177.452L102.798 107.902L129.364 189.663L125.891 190.792L99.3281 109.039V195H95.6719V109.062L69.1162 190.792L65.6436 189.663L92.2158 107.883L41.6709 177.452L38.7168 175.306L89.2549 105.745L19.6943 156.284L17.5488 153.33L87.0977 102.799L5.34082 129.364L4.21289 125.891L86.9844 98.9961H0V95.9961H87.4092L4.25 68.9766L5.29492 65.7617L88.0293 92.6436L17.6562 41.5156L19.582 38.8652L89.6006 89.7363L38.7109 19.6934L41.665 17.5469L92.2002 87.1025L65.6328 5.33594L69.1055 4.20703L95.6719 85.9688V0H99.3281Z" fill="white"/>
</g>
</svg>
