<svg width="195" height="195" viewBox="0 0 195 195" fill="none" xmlns="http://www.w3.org/2000/svg">
<path d="M99.3232 95.6719H195V99.3232H120.698L194.085 110.947L193.514 114.554L120.12 102.929L190.787 125.891L189.659 129.364L119.008 106.408L185.201 140.136L183.543 143.39L117.344 109.659L177.451 153.33L175.306 156.284L115.192 112.609L167.733 165.15L165.151 167.732L112.63 115.211L156.291 175.306L153.337 177.452L109.647 117.319L143.392 183.545L140.138 185.202L106.4 118.99L129.364 189.663L125.892 190.792L102.92 120.093L114.549 193.515L110.942 194.086L99.3232 120.726V195H95.6719V99.3232H0V95.6719H74.3008L0.914062 84.0488L1.48535 80.4424L74.8643 92.0645L4.20312 69.1055L5.33203 65.6328L76.0059 88.5957L9.79688 54.8613L11.4551 51.6074L77.6602 85.3408L17.5469 41.666L19.6934 38.7119L79.8037 82.3848L27.2656 29.8467L29.8477 27.2646L82.4053 79.8223L38.7188 19.6934L41.6729 17.5469L85.3301 77.6357L51.6094 11.4561L54.8633 9.79785L88.5898 75.9912L65.6328 5.33594L69.1055 4.20703L92.0547 74.8389L80.4375 1.48633L84.0439 0.915039L95.6719 74.3301V0H99.3232V95.6719Z" fill="#212121"/>
</svg>
