<svg width="26" height="42" viewBox="0 0 26 42" fill="none" xmlns="http://www.w3.org/2000/svg">
<path d="M17.8728 0.0616098C21.0545 -0.301074 24.5322 0.913053 25.231 4.35466C25.8111 7.2141 25.2045 10.5732 24.8717 13.4513C24.4246 17.4595 23.8988 21.4584 23.2947 25.4463C22.8729 28.3369 22.5309 31.1512 22.0085 34.0309C20.9477 39.8774 13.7144 43.6739 8.61926 40.0767C7.57262 39.3388 6.73922 38.338 6.20298 37.1752C4.22379 32.9382 3.40098 25.8184 2.08318 21.2109C1.30224 18.4806 0.466819 15.1807 0 12.396C0.721009 12.3337 1.52996 12.3103 2.25969 12.2714C2.93229 16.5116 4.12198 20.7579 5.17423 24.9451C6.17979 28.9471 6.54465 33.8924 8.85602 37.348C10.5086 39.6315 15.2302 39.5754 17.2502 37.8912C18.8115 36.5899 19.7382 34.5103 20.0945 32.5412C21.0813 27.087 21.6871 21.5424 22.3038 16.0353C22.6 12.8474 23.3872 9.4867 23.382 6.31283C23.312 1.27884 16.0414 0.257735 14.9949 5.48629C13.2674 14.1098 12.2048 22.934 11.1045 31.654C10.616 35.5252 14.6222 36.1027 15.215 32.5739C16.3625 25.7421 17.8406 18.4075 18.9396 11.6192C19.6332 11.9586 20.2054 12.0582 20.9505 12.2278C20.1515 16.1442 17.8909 32.8728 16.4707 34.9991C15.9374 35.7976 15.2055 36.4498 14.2379 36.6273C12.9245 36.867 11.2829 36.6678 10.1726 35.8817C9.58201 35.463 9.27256 34.9399 9.15551 34.2301C8.39091 29.5962 10.812 17.8813 11.5889 12.8692C11.9991 10.2214 12.163 7.44603 12.8406 4.85743C13.0649 3.9764 13.456 3.14675 13.9931 2.41205C15.0609 0.936405 16.1355 0.330899 17.8728 0.0616098Z" fill="white"/>
</svg>
