<svg width="40" height="40" viewBox="0 0 40 40" fill="none" xmlns="http://www.w3.org/2000/svg">
<path fill-rule="evenodd" clip-rule="evenodd" d="M19.9997 5.83337C12.188 5.83337 5.83301 12.1884 5.83301 20C5.83301 27.8117 12.188 34.1667 19.9997 34.1667C27.8113 34.1667 34.1663 27.8117 34.1663 20C34.1663 12.1884 27.8113 5.83337 19.9997 5.83337M19.9997 36.6667C10.8097 36.6667 3.33301 29.19 3.33301 20C3.33301 10.81 10.8097 3.33337 19.9997 3.33337C29.1897 3.33337 36.6663 10.81 36.6663 20C36.6663 29.19 29.1897 36.6667 19.9997 36.6667" fill="#212121"/>
<path fill-rule="evenodd" clip-rule="evenodd" d="M25.7179 26.154C25.4996 26.154 25.2796 26.0974 25.0779 25.979L18.7946 22.2307C18.4179 22.004 18.1846 21.5957 18.1846 21.1557V13.0757C18.1846 12.3857 18.7446 11.8257 19.4346 11.8257C20.1262 11.8257 20.6846 12.3857 20.6846 13.0757V20.4457L26.3596 23.829C26.9512 24.184 27.1462 24.9507 26.7929 25.544C26.5579 25.9357 26.1429 26.154 25.7179 26.154" fill="#212121"/>
</svg>
