<svg width="30" height="36" viewBox="0 0 30 36" fill="none" xmlns="http://www.w3.org/2000/svg">
<path fill-rule="evenodd" clip-rule="evenodd" d="M14.4893 5.36026e-07H14.6774C17.7403 -2.58887e-05 20.1663 -4.69387e-05 22.065 0.255225C24.0191 0.517939 25.6007 1.07147 26.8479 2.31874C28.0952 3.56601 28.6487 5.14759 28.9114 7.10163C29.1667 9.00032 29.1667 11.4264 29.1667 14.4893V21.344C29.1667 24.407 29.1667 26.833 28.9114 28.7317C28.6487 30.6857 28.0952 32.2673 26.8479 33.5146C25.6007 34.7619 24.0191 35.3154 22.065 35.5781C20.1663 35.8334 17.7403 35.8334 14.6774 35.8333H14.4893C11.4264 35.8334 9.00032 35.8334 7.10163 35.5781C5.14759 35.3154 3.56601 34.7619 2.31874 33.5146C1.07147 32.2673 0.517939 30.6857 0.255225 28.7317C-4.69387e-05 26.833 -2.58887e-05 24.407 5.36026e-07 21.344V14.4893C-2.58887e-05 11.4264 -4.69387e-05 9.00032 0.255225 7.10163C0.517939 5.14759 1.07147 3.56601 2.31874 2.31874C3.56601 1.07147 5.14759 0.517939 7.10163 0.255225C9.00032 -4.69387e-05 11.4264 -2.58887e-05 14.4893 5.36026e-07ZM7.43475 2.73293C5.75793 2.95837 4.79186 3.38116 4.08651 4.08651C3.38116 4.79186 2.95837 5.75793 2.73293 7.43475C2.50266 9.14752 2.5 11.4053 2.5 14.5833V21.25C2.5 24.428 2.50266 26.6858 2.73293 28.3986C2.95837 30.0754 3.38116 31.0415 4.08651 31.7468C4.79186 32.4522 5.75793 32.875 7.43475 33.1004C9.14752 33.3307 11.4053 33.3333 14.5833 33.3333C17.7614 33.3333 20.0191 33.3307 21.7319 33.1004C23.4087 32.875 24.3748 32.4522 25.0802 31.7468C25.7855 31.0415 26.2083 30.0754 26.4337 28.3986C26.664 26.6858 26.6667 24.428 26.6667 21.25V14.5833C26.6667 11.4053 26.664 9.14752 26.4337 7.43475C26.2083 5.75793 25.7855 4.79186 25.0802 4.08651C24.3748 3.38116 23.4087 2.95837 21.7319 2.73293C20.0191 2.50266 17.7614 2.5 14.5833 2.5C11.4053 2.5 9.14752 2.50266 7.43475 2.73293ZM8.33333 6.25C8.33333 5.55965 8.89298 5 9.58333 5H19.5833C20.2737 5 20.8333 5.55965 20.8333 6.25C20.8333 6.94036 20.2737 7.5 19.5833 7.5H9.58333C8.89298 7.5 8.33333 6.94036 8.33333 6.25ZM14.5833 24.1667C13.4327 24.1667 12.5 25.0994 12.5 26.25C12.5 27.4006 13.4327 28.3333 14.5833 28.3333C15.7339 28.3333 16.6667 27.4006 16.6667 26.25C16.6667 25.0994 15.7339 24.1667 14.5833 24.1667ZM10 26.25C10 23.7187 12.052 21.6667 14.5833 21.6667C17.1146 21.6667 19.1667 23.7187 19.1667 26.25C19.1667 28.7813 17.1146 30.8333 14.5833 30.8333C12.052 30.8333 10 28.7813 10 26.25Z" fill="white"/>
</svg>
