<svg width="37" height="28" viewBox="0 0 37 28" fill="none" xmlns="http://www.w3.org/2000/svg">
<path fill-rule="evenodd" clip-rule="evenodd" d="M18.0994 15.23H18.1444C22.3444 15.23 25.7594 11.8133 25.7594 7.615C25.7594 3.41667 22.3444 0 18.1444 0C13.9461 0 10.5311 3.41667 10.5311 7.61C10.5227 9.63833 11.3044 11.5483 12.7344 12.9867C14.1611 14.4267 16.0661 15.2233 18.0994 15.23ZM13.0311 7.615C13.0311 4.795 15.3244 2.5 18.1444 2.5C20.9644 2.5 23.2594 4.795 23.2594 7.615C23.2594 10.4367 20.9644 12.73 18.1444 12.73H18.1027C16.7427 12.725 15.4661 12.19 14.5077 11.225C13.5494 10.26 13.0261 8.98167 13.0311 7.615Z" fill="#212121"/>
<path d="M26.9078 12.5008C26.9962 13.1258 27.5312 13.5775 28.1445 13.5775C28.2012 13.5775 28.2595 13.5742 28.3178 13.5658C31.2762 13.1508 33.5112 10.5842 33.5178 7.59251C33.5178 4.62084 31.3895 2.11418 28.4595 1.63251C27.7745 1.52418 27.1362 1.98084 27.0228 2.66251C26.9112 3.34418 27.3728 3.98751 28.0528 4.09918C29.7712 4.38084 31.0178 5.85084 31.0178 7.58918C31.0145 9.34251 29.7062 10.8458 27.9728 11.0892C27.2878 11.1842 26.8128 11.8158 26.9078 12.5008Z" fill="#212121"/>
<path d="M31.9338 23.4136C32.1238 23.9119 32.5988 24.2186 33.1022 24.2186C33.2505 24.2186 33.4005 24.1919 33.5472 24.1369C35.9305 23.2286 36.2872 21.5736 36.2872 20.6669C36.2872 19.1819 35.4388 17.2853 31.4005 16.6803C30.7122 16.5919 30.0788 17.0469 29.9772 17.7303C29.8755 18.4153 30.3472 19.0503 31.0288 19.1536C32.8588 19.4269 33.7872 19.9369 33.7872 20.6669C33.7872 20.8953 33.7872 21.3703 32.6572 21.8003C32.0122 22.0453 31.6872 22.7686 31.9338 23.4136Z" fill="#212121"/>
<path fill-rule="evenodd" clip-rule="evenodd" d="M18.1444 27.9849C15.3794 27.9849 6.96269 27.9849 6.96269 22.6599C6.96269 17.3566 15.3794 17.3566 18.1444 17.3566C20.9094 17.3566 29.3244 17.3566 29.3244 22.6882C29.3244 27.9849 21.2027 27.9849 18.1444 27.9849ZM18.1444 19.8566C14.1844 19.8566 9.46269 20.3432 9.46269 22.6599C9.46269 24.9949 14.1844 25.4849 18.1444 25.4849C22.1044 25.4849 26.8244 24.9999 26.8244 22.6882C26.8244 20.3482 22.1044 19.8566 18.1444 19.8566Z" fill="#212121"/>
<path d="M8.14266 13.5774C8.086 13.5774 8.02766 13.5741 7.96933 13.5658C5.011 13.1508 2.77766 10.5841 2.771 7.59575C2.771 4.62075 4.89933 2.11408 7.82933 1.63242C8.531 1.52242 9.15266 1.98408 9.266 2.66242C9.37766 3.34408 8.916 3.98742 8.236 4.09908C6.51766 4.38075 5.271 5.85075 5.271 7.59242C5.27433 9.34242 6.58266 10.8474 8.31433 11.0891C8.99933 11.1841 9.47433 11.8158 9.37933 12.5008C9.291 13.1258 8.756 13.5774 8.14266 13.5774Z" fill="#212121"/>
<path d="M2.74167 24.137C2.88833 24.192 3.03833 24.2187 3.18667 24.2187C3.69 24.2187 4.165 23.912 4.355 23.4137C4.60167 22.7687 4.27667 22.0453 3.63167 21.8003C2.5 21.3687 2.5 20.8953 2.5 20.667C2.5 19.937 3.42833 19.427 5.25833 19.1536C5.94 19.0503 6.41167 18.4153 6.31 17.7303C6.20667 17.047 5.57667 16.5937 4.88833 16.6803C0.848333 17.2853 0 19.1837 0 20.667C0 21.572 0.356667 23.227 2.74167 24.137Z" fill="#212121"/>
</svg>
